<svg width="17" height="17" viewBox="0 0 17 17" fill="none" xmlns="http://www.w3.org/2000/svg">
<path d="M4.28462 16.3529C4.15402 16.357 4.07239 16.304 4.00097 16.2328C3.4908 15.7339 2.97655 15.2391 2.47047 14.7382C1.89908 14.1721 1.33586 13.5959 0.760388 13.0339C0.631826 12.9076 0.599175 12.7753 0.650192 12.6266C0.762429 12.2907 0.874666 11.9506 1.01547 11.6248C1.92153 9.51734 3.18062 7.63385 4.6948 5.91733C6.10082 4.32298 7.69662 2.9465 9.49241 1.80826C10.1291 1.40509 10.7944 1.05079 11.4453 0.67206C11.5127 0.633372 11.5412 0.667988 11.5821 0.706676C12.2187 1.34197 12.8575 1.97727 13.4942 2.6146C14.4267 3.54515 15.3593 4.47773 16.294 5.40624C16.3531 5.46529 16.3572 5.50398 16.3205 5.57728C15.5246 7.13498 14.5594 8.57865 13.4207 9.90626C12.7003 10.7452 11.9188 11.525 11.0964 12.2642C9.2108 13.9583 7.09666 15.2961 4.72949 16.2226C4.60705 16.2714 4.48053 16.3101 4.35401 16.3509C4.3234 16.3529 4.29074 16.3509 4.28462 16.3529ZM5.63146 10.1221C5.56412 10.8633 6.25183 11.3764 6.85587 11.3723C7.53541 11.3662 8.10271 10.8063 8.10067 10.1241C8.09863 9.55196 7.7007 8.88001 6.75791 8.89426C6.14775 8.90444 5.63146 9.45829 5.63146 10.1221ZM10.3944 7.81507C11.1127 7.89041 11.6474 7.16552 11.6412 6.59742C11.6372 6.0171 11.129 5.34719 10.3597 5.3533C9.74545 5.35737 9.12917 5.91733 9.1557 6.6076C9.18223 7.3162 9.67403 7.81507 10.3944 7.81507Z" fill="#C4C4C4"/>
</svg>
